<?xml version="1.0" encoding="utf-8"?>
<!-- Generator: Adobe Illustrator 25.2.1, SVG Export Plug-In . SVG Version: 6.00 Build 0)  -->
<svg version="1.1" xmlns="http://www.w3.org/2000/svg" xmlns:xlink="http://www.w3.org/1999/xlink" x="0px" y="0px"
	 viewBox="0 0 288 288" style="enable-background:new 0 0 288 288;" xml:space="preserve">
<style type="text/css">
	.st0{fill:#F4E2CE;}
	.st1{fill:#414042;stroke:#424142;stroke-miterlimit:10;}
	.st2{font-family:'SnellRoundhand';}
	.st3{font-size:135.4877px;}
	.st4{fill:none;stroke:#414042;stroke-width:3;stroke-linecap:round;stroke-miterlimit:10;}
	.st5{fill:#414042;}
</style>
<g id="Layer_2">
	<rect class="st0" width="288" height="288"/>
</g>
<g id="Layer_1">
	<text transform="matrix(1 0 0 1 49.7485 186.6035)" class="st1 st2 st3">A</text>
	<path class="st4" d="M155.68,11.6c-12.43-0.72-46.19-1.03-80.54,20.25c-41.01,25.4-55.01,64.32-58.5,75.13
		c-4.13,12.25-9.98,35.3-5.52,63.55c6.96,44.07,34.33,71.02,43.53,79.34"/>
	<path class="st4" d="M232.98,40.07c9.11,8.49,32.66,32.68,41,72.22c9.96,47.2-8.5,84.21-13.91,94.2
		c-6.01,11.45-18.63,31.61-42.13,47.89c-36.67,25.41-75.06,24.24-87.44,23.34"/>
	<circle class="st5" cx="66" cy="258.49" r="3.3"/>
	<circle class="st5" cx="88.09" cy="269.95" r="3.3"/>
	<circle class="st5" cx="113.27" cy="276.54" r="3.3"/>
	<circle class="st5" cx="218.9" cy="32.72" r="3.3"/>
	<circle class="st5" cx="196.8" cy="21.26" r="3.3"/>
	<circle class="st5" cx="171.62" cy="14.67" r="3.3"/>
</g>
</svg>
